<?xml version="1.0" encoding="UTF-8"?><svg id="Layer_1" xmlns="http://www.w3.org/2000/svg" viewBox="0 0 988 428.8"><defs><style>.cls-1{fill:#0099d5;}.cls-2{fill:#fff;}.cls-3{fill:#0c2179;}.cls-4{fill:#df7300;}.cls-5{fill:#00a4a6;}.cls-6{fill:#5b1c7c;}.cls-7{fill:#feb200;}.cls-8{fill:#b10067;}.cls-9{fill:#000064;}.cls-10{fill:#00a54f;}.cls-11{fill:#b20768;}.cls-12{fill:#6fa200;}.cls-13{fill:#fe3700;}.cls-14{fill:#f20051;}</style></defs><g><path class="cls-2" d="M443.57,253.84h-33c-30.36,0-54.97-24.61-54.97-54.97,0-30.36,24.61-54.97,54.97-54.97h33v14.13h-33.9c-10.7-.05-20.98,4.17-28.57,11.71-7.58,7.55-11.85,17.81-11.85,28.51s4.26,20.96,11.85,28.51c7.59,7.55,17.87,11.76,28.57,11.71h33.9v15.35Zm0,0"/><path class="cls-11" d="M559.04,252.9c-29.44-.03-53.29-23.89-53.32-53.33v-3.69c0-29.45,23.87-53.33,53.32-53.33s53.33,23.87,53.33,53.33v3.69c-.03,29.44-23.89,53.29-53.33,53.33h0Zm-.39-96.77c-21.76,.02-39.4,17.66-39.42,39.42v3.57c0,21.77,17.65,39.42,39.42,39.42s39.42-17.65,39.42-39.42v-3.57c-.02-21.76-17.66-39.4-39.42-39.42h0Zm0,0"/><polygon class="cls-2" points="498.09 239.66 472.88 239.66 472.88 142.79 458.8 142.79 458.8 253.74 472.88 253.74 472.88 253.74 498.09 253.74 498.09 239.66"/><rect class="cls-11" x="852.43" y="142.32" width="14.08" height="111.42"/><path class="cls-2" d="M733.8,143.4v56.6c0,29.32-23.77,53.09-53.09,53.09s-53.09-23.77-53.09-53.09v-56.6h14.46v56.85c0,21.46,17.4,38.86,38.86,38.86s38.85-17.4,38.85-38.86v-56.85h14.02Zm0,0"/><path class="cls-2" d="M881.82,253.28v-56.6c0-29.32,23.77-53.09,53.09-53.09s53.09,23.77,53.09,53.09v56.6h-14.02v-56.85c0-21.46-17.39-38.85-38.85-38.85s-38.86,17.39-38.86,38.85v56.85h-14.46Zm0,0"/><path class="cls-2" d="M748.93,142.56h32.71c30.53,0,55.27,24.74,55.27,55.27s-24.74,55.27-55.27,55.27h-32.71v-15.43h33.68c22.34,0,40.45-18.11,40.45-40.45s-18.11-40.45-40.45-40.45h-33.68v-14.21Zm0,0"/></g><g><circle class="cls-8" cx="128.2" cy="56.24" r="52.49"/><circle class="cls-13" cx="370.18" cy="53.28" r="53.28"/><circle class="cls-9" cx="369.39" cy="341.91" r="53.28"/><circle class="cls-6" cx="116.34" cy="319.28" r="32.03"/><circle class="cls-12" cx="208.86" cy="396.77" r="32.03"/><circle class="cls-3" cx="253.94" cy="136.61" r="32.03"/><circle class="cls-5" cx="247.41" cy="41.71" r="26.79"/><circle class="cls-7" cx="315.62" cy="175.16" r="26.79"/><circle class="cls-4" cx="26.79" cy="152.62" r="26.79"/><circle class="cls-14" cx="83.72" cy="232.69" r="21.35"/><path class="cls-1" d="M183.26,197.57c9.63-9.63,23.69-15.74,37.37-16.34,0-.15,.01-.29,.01-.44,0-28.99-23.5-52.49-52.49-52.49s-52.49,23.5-52.49,52.49,22.83,51.79,51.24,52.46c.72-12.93,7.54-26.86,16.35-35.68Z"/><circle class="cls-10" cx="223.53" cy="237.73" r="52.49"/></g></svg>